<svg width="33" height="16" viewBox="0 0 33 16" fill="none" xmlns="http://www.w3.org/2000/svg">
<path fill-rule="evenodd" clip-rule="evenodd" d="M16.4079 15.8831C25.047 15.8831 32.0504 12.3536 32.0504 8C32.0504 3.6464 25.047 0.116867 16.4079 0.116867C7.76897 0.116867 0.765442 3.6464 0.765442 8C0.765442 12.3536 7.76897 15.8831 16.4079 15.8831Z" fill="#6E81B6"/>
<path fill-rule="evenodd" clip-rule="evenodd" d="M19.5781 10.5479L20.354 6.57675C20.5291 5.68045 20.3835 5.01194 19.9214 4.58947C19.4736 4.18072 18.7136 3.9819 17.598 3.9819H16.2543L16.6386 2.01437C16.6458 1.97775 16.6448 1.94 16.6356 1.90382C16.6264 1.86765 16.6093 1.83395 16.5854 1.80514C16.5616 1.77634 16.5316 1.75314 16.4977 1.73721C16.4637 1.72129 16.4267 1.71303 16.3892 1.71303H14.5345C14.4127 1.71303 14.3081 1.79899 14.2848 1.91787L13.4607 6.13378C13.3858 5.65939 13.2012 5.25158 12.9057 4.91507C12.3617 4.29584 11.5013 3.9819 10.348 3.9819H6.75339C6.63158 3.9819 6.52698 4.06786 6.50371 4.18656L4.83596 12.7203C4.8214 12.7946 4.84088 12.871 4.8893 12.9293C4.93754 12.9878 5.00941 13.0215 5.08564 13.0215H6.95484C7.07665 13.0215 7.18125 12.9355 7.20452 12.8164L7.60798 10.7524H8.99938C9.7295 10.7524 10.3431 10.6738 10.822 10.5188C11.3118 10.3604 11.7625 10.0918 12.1597 9.72199C12.4807 9.42874 12.7459 9.10032 12.95 8.74612L12.6169 10.4511C12.6023 10.5254 12.6218 10.6021 12.6702 10.6601C12.7185 10.7185 12.7905 10.7522 12.8666 10.7522H14.7212C14.843 10.7522 14.9476 10.6663 14.9709 10.5476L15.8862 5.86329H17.1588C17.7011 5.86329 17.86 5.97069 17.9033 6.01678C17.9425 6.05891 18.0238 6.20732 17.9324 6.67513L17.1948 10.4509C17.1877 10.4875 17.1888 10.5252 17.1981 10.5613C17.2074 10.5974 17.2245 10.6311 17.2484 10.6598C17.2722 10.6886 17.3022 10.7118 17.3361 10.7277C17.3699 10.7437 17.4069 10.752 17.4444 10.752H19.3286C19.3875 10.7521 19.4447 10.7318 19.4902 10.6946C19.5357 10.6573 19.5668 10.6055 19.5781 10.5479ZM10.9796 7.26671C10.8631 7.86205 10.6437 8.28659 10.327 8.52868C10.0055 8.77528 9.49117 8.90018 8.79831 8.90018H7.96983L8.56887 5.83451H9.64003C10.4269 5.83451 10.7439 6.00173 10.8712 6.14187C11.0477 6.33636 11.0852 6.72554 10.9796 7.26671ZM27.3902 4.91507C26.8464 4.29584 25.986 3.9819 24.8327 3.9819H21.2381C21.1161 3.9819 21.0116 4.06786 20.9884 4.18656L19.3208 12.7203C19.3061 12.7946 19.3255 12.871 19.374 12.9293C19.4224 12.9876 19.4945 13.0215 19.5701 13.0215H21.4395C21.5615 13.0215 21.6659 12.9355 21.6892 12.8164L22.0926 10.7524H23.4842C24.2145 10.7524 24.8276 10.6738 25.3067 10.5188C25.7966 10.3604 26.2474 10.0918 26.6444 9.72199C26.9758 9.41934 27.2484 9.07906 27.4549 8.7117C27.6615 8.34434 27.8096 7.93465 27.896 7.49375C28.1084 6.40633 27.9384 5.53881 27.3902 4.91507ZM25.5704 7.26671C25.4537 7.86205 25.2343 8.28659 24.918 8.52868C24.5963 8.77528 24.082 8.90018 23.3893 8.90018H22.5606L23.1595 5.83451H24.2308C25.0177 5.83451 25.3347 6.00173 25.4622 6.14187C25.6383 6.33636 25.6759 6.72554 25.5704 7.26671Z" fill="white"/>
<path fill-rule="evenodd" clip-rule="evenodd" d="M9.58682 5.58155C10.2969 5.58155 10.7703 5.7119 11.007 5.97261C11.2434 6.23331 11.2998 6.68099 11.1761 7.31508C11.0467 7.9755 10.7978 8.44688 10.4289 8.72941C10.0601 9.01194 9.49867 9.15301 8.74509 9.15301H7.60791L8.30588 5.58155H9.58682ZM5.03223 12.7685H6.90143L7.34499 10.4998H8.94616C9.65264 10.4998 10.2339 10.4259 10.6901 10.2782C11.1464 10.1306 11.5612 9.88322 11.9344 9.5358C12.2476 9.24969 12.5011 8.93369 12.6952 8.58833C12.889 8.24298 13.0267 7.86208 13.1083 7.44543C13.3061 6.43383 13.1569 5.64588 12.6609 5.08157C12.1652 4.51708 11.3762 4.23493 10.2948 4.23493H6.70017L5.03223 12.7685ZM14.4811 1.96606H16.3358L15.8924 4.23493H17.5448C18.584 4.23493 19.3015 4.41513 19.6961 4.77572C20.0906 5.13631 20.2088 5.72074 20.0511 6.52863L19.2752 10.4998H17.391L18.1287 6.72388C18.2125 6.29426 18.1819 6.00139 18.0361 5.84507C17.8902 5.68895 17.5798 5.6107 17.1054 5.6107H15.6232L14.6678 10.4998H12.8132L14.4811 1.96606ZM24.1776 5.58155C24.8877 5.58155 25.361 5.7119 25.5978 5.97261C25.8342 6.23331 25.8904 6.68099 25.7667 7.31508C25.6377 7.9755 25.3888 8.44688 25.0197 8.72941C24.6511 9.01194 24.0895 9.15301 23.3363 9.15301H22.1991L22.8969 5.58155H24.1776ZM19.6227 12.7685H21.4921L21.9354 10.4998H23.5366C24.2433 10.4998 24.8245 10.4259 25.2808 10.2782C25.737 10.1306 26.1518 9.88322 26.525 9.5358C26.8382 9.24969 27.0917 8.93369 27.2856 8.58833C27.4795 8.24298 27.6174 7.86208 27.6991 7.44543C27.8967 6.43383 27.7475 5.64588 27.2517 5.08157C26.7556 4.51708 25.9668 4.23493 24.8854 4.23493H21.2908L19.6227 12.7685Z" fill="black"/>
</svg>
