<svg width="273" height="208" viewBox="0 0 273 208" fill="none" xmlns="http://www.w3.org/2000/svg">
<path d="M74.3701 0.975996L76.7701 0.207994C78.9461 0.207994 80.0341 3.088 80.0341 8.848L83.0101 31.024L83.3941 31.408L94.4341 27.376C95.9061 27.376 96.7061 28.496 96.8341 30.736C96.8341 32.4 92.7701 34.416 84.6421 36.784L84.2581 36.976V37.36C84.2581 38.704 86.3701 45.712 90.5941 58.384V58.576C90.5941 59.792 89.6021 60.816 87.6181 61.648C85.7621 61.648 84.5461 59.44 83.9701 55.024C82.4981 51.824 80.7061 46.544 78.5941 39.184H78.2101C69.8261 40.912 65.6341 42.384 65.6341 43.6C61.0261 53.584 57.5381 58.576 55.1701 58.576C53.8261 58.576 53.0261 57.712 52.7701 55.984C52.7701 54.448 54.4661 51.44 57.8581 46.96L59.3941 43.6H56.9941L55.1701 43.984C52.8021 43.408 51.6181 42.192 51.6181 40.336C52.5781 38.096 53.9861 36.976 55.8421 36.976L58.2421 37.936C61.8261 37.936 63.6181 36.624 63.6181 34C66.8821 26.32 70.4661 15.312 74.3701 0.975996ZM75.2341 18.448L69.5701 35.536C74.8181 34.512 77.4421 33.52 77.4421 32.56C76.4821 23.152 75.7461 18.448 75.2341 18.448ZM106.979 5.008C109.987 5.968 115.715 17.648 124.163 40.048L125.603 41.776V36.4C125.603 22.128 129.123 12.048 136.163 6.16C137.763 6.16 138.755 7.248 139.139 9.424C134.339 16.592 131.939 22.384 131.939 26.8C131.619 26.8 131.427 28.816 131.363 32.848V37.936C131.363 42.352 131.843 48.656 132.803 56.848C132.227 58.448 131.203 59.248 129.731 59.248C128.259 59.248 126.179 56.24 123.491 50.224C120.227 45.04 116.643 37.168 112.739 26.608H112.355V27.184L112.931 39.376C112.931 51.984 110.531 60.112 105.731 63.76L103.331 64.048C101.347 64.048 99.6834 62.224 98.3394 58.576C98.7874 56.592 99.7794 55.6 101.315 55.6H101.891L103.715 57.136H104.003C106.243 54.128 107.363 48.432 107.363 40.048C107.363 31.6 106.147 20.912 103.715 7.984C103.715 6.256 104.803 5.264 106.979 5.008ZM150.337 1.936C159.361 1.936 168.065 6.736 176.449 16.336C179.009 21.392 180.289 26.288 180.289 31.024C180.289 42.16 174.625 50.352 163.297 55.6C159.649 57.2 155.713 58 151.489 58H149.089C146.721 57.936 145.537 56.944 145.537 55.024H145.249C145.249 53.296 146.337 52.4 148.513 52.336H150.721V51.76H150.913C146.945 34.928 144.961 22.416 144.961 14.224H144.673L142.273 15.76C140.609 15.76 139.617 14.64 139.297 12.4C139.297 8.88 141.281 5.808 145.249 3.184C146.849 2.352 148.545 1.936 150.337 1.936ZM151.489 7.6H150.721V12.208C150.721 22.704 152.705 35.888 156.673 51.76H156.961C168.801 48.56 174.721 41.648 174.721 31.024C174.721 19.632 168.097 12.016 154.849 8.17599C154.081 7.792 152.961 7.6 151.489 7.6ZM3.461 148.816C4.997 148.816 5.989 149.616 6.437 151.216L5.861 156.88V158.704C7.461 171.952 8.453 182.256 8.837 189.616C9.541 196.464 10.277 199.888 11.045 199.888C11.045 201.232 9.925 202.096 7.685 202.48C4.485 202.48 2.885 196.016 2.885 183.088L0.197 158.128V157.264C0.197 151.632 1.285 148.816 3.461 148.816ZM61.3213 145.936C70.3453 145.936 79.0493 150.736 87.4333 160.336C89.9933 165.392 91.2733 170.288 91.2733 175.024C91.2733 186.16 85.6093 194.352 74.2812 199.6C70.6333 201.2 66.6973 202 62.4733 202H60.0733C57.7053 201.936 56.5213 200.944 56.5213 199.024H56.2333C56.2333 197.296 57.3213 196.4 59.4973 196.336H61.7053V195.76H61.8973C57.9293 178.928 55.9453 166.416 55.9453 158.224H55.6573L53.2573 159.76C51.5933 159.76 50.6013 158.64 50.2812 156.4C50.2812 152.88 52.2653 149.808 56.2333 147.184C57.8333 146.352 59.5293 145.936 61.3213 145.936ZM62.4733 151.6H61.7053V156.208C61.7053 166.704 63.6893 179.888 67.6573 195.76H67.9453C79.7853 192.56 85.7053 185.648 85.7053 175.024C85.7053 163.632 79.0813 156.016 65.8333 152.176C65.0653 151.792 63.9453 151.6 62.4733 151.6ZM111.459 147.376H111.843C119.587 148.784 123.459 152.528 123.459 158.608V160.336C123.459 167.056 119.171 173.744 110.595 180.4V180.784C124.483 193.2 134.083 199.408 139.395 199.408C140.355 200.112 140.835 200.976 140.835 202C140.835 203.472 139.747 204.4 137.571 204.784C132.259 204.784 122.339 198.384 107.811 185.584L103.683 183.376H103.395C105.187 190.544 106.083 196.08 106.083 199.984C106.083 201.648 105.059 202.832 103.011 203.536C100.067 203.536 98.2108 196.336 97.4428 181.936C95.3948 175.28 94.3708 169.968 94.3708 166V165.136C94.3708 159.312 95.6508 156.4 98.2108 156.4L100.035 157.36H100.611C103.683 150.704 107.299 147.376 111.459 147.376ZM103.683 173.008L103.395 176.56C109.347 176.56 114.147 171.632 117.795 161.776V158.224C117.795 155.408 115.875 153.712 112.035 153.136H111.459C107.427 153.136 104.835 159.76 103.683 173.008ZM164.886 144.976L167.286 144.208C169.462 144.208 170.55 147.088 170.55 152.848L173.526 175.024L173.91 175.408L184.95 171.376C186.422 171.376 187.222 172.496 187.35 174.736C187.35 176.4 183.286 178.416 175.158 180.784L174.774 180.976V181.36C174.774 182.704 176.886 189.712 181.11 202.384V202.576C181.11 203.792 180.118 204.816 178.134 205.648C176.278 205.648 175.062 203.44 174.486 199.024C173.014 195.824 171.222 190.544 169.11 183.184H168.726C160.342 184.912 156.15 186.384 156.15 187.6C151.542 197.584 148.054 202.576 145.686 202.576C144.342 202.576 143.542 201.712 143.286 199.984C143.286 198.448 144.982 195.44 148.374 190.96L149.91 187.6H147.51L145.686 187.984C143.318 187.408 142.134 186.192 142.134 184.336C143.094 182.096 144.502 180.976 146.358 180.976L148.758 181.936C152.342 181.936 154.134 180.624 154.134 178C157.398 170.32 160.982 159.312 164.886 144.976ZM165.75 162.448L160.086 179.536C165.334 178.512 167.958 177.52 167.958 176.56C166.998 167.152 166.262 162.448 165.75 162.448ZM212.855 133.264C218.039 133.264 224.439 136.656 232.055 143.44C242.423 155.472 247.607 167.952 247.607 180.88C247.607 193.744 241.303 202.544 228.695 207.28L226.007 207.664C219.223 207.664 213.911 202.736 210.071 192.88H209.879C207.639 200.88 204.631 204.88 200.855 204.88H200.279C195.287 204.88 191.863 195.472 190.007 176.656V171.088C190.135 164.432 192.023 160.624 195.671 159.664C196.695 159.664 197.623 160.656 198.455 162.64C196.599 165.2 195.671 168.208 195.671 171.664V172.528C195.671 184.368 197.399 193.168 200.855 198.928C203.415 197.072 205.303 189.456 206.519 176.08C206.519 165.264 207.319 159.856 208.919 159.856L209.879 159.664C211.991 159.664 213.047 161.744 213.047 165.904L212.471 176.464C212.471 183.568 214.679 190.96 219.095 198.64C221.271 200.816 223.479 201.904 225.719 201.904C229.367 201.904 233.271 199.632 237.431 195.088C240.375 191.184 241.847 186.256 241.847 180.304C241.847 167.12 236.055 155.024 224.471 144.016C221.463 141.584 216.855 139.6 210.647 138.064L209.879 136.24C210.327 134.256 211.319 133.264 212.855 133.264ZM253.82 136.816C255.548 137.52 256.412 138.544 256.412 139.888C256.924 158.064 257.66 171.184 258.62 179.248C257.98 180.848 257.052 181.648 255.836 181.648C253.468 181.648 252.284 177.84 252.284 170.224C251.708 167.408 251.228 157.2 250.844 139.6C250.844 138 251.836 137.072 253.82 136.816ZM254.396 202.864C254.972 200.88 255.996 199.888 257.468 199.888C259.004 199.888 260.06 200.88 260.636 202.864C259.932 204.72 258.94 205.648 257.66 205.648H257.372C256.092 205.648 255.1 204.72 254.396 202.864ZM266.008 136.816C267.736 137.52 268.6 138.544 268.6 139.888C269.112 158.064 269.848 171.184 270.808 179.248C270.168 180.848 269.24 181.648 268.023 181.648C265.656 181.648 264.472 177.84 264.472 170.224C263.896 167.408 263.416 157.2 263.032 139.6C263.032 138 264.024 137.072 266.008 136.816ZM266.584 202.864C267.16 200.88 268.184 199.888 269.656 199.888C271.192 199.888 272.248 200.88 272.824 202.864C272.12 204.72 271.128 205.648 269.848 205.648H269.56C268.28 205.648 267.288 204.72 266.584 202.864Z" fill="black"/>
</svg>
